<?xml version="1.0" encoding="UTF-8" standalone="no"?>
<svg
   xmlns:dc="http://purl.org/dc/elements/1.1/"
   xmlns:cc="http://creativecommons.org/ns#"
   xmlns:rdf="http://www.w3.org/1999/02/22-rdf-syntax-ns#"
   xmlns:svg="http://www.w3.org/2000/svg"
   xmlns="http://www.w3.org/2000/svg"
   xmlns:sodipodi="http://sodipodi.sourceforge.net/DTD/sodipodi-0.dtd"
   xmlns:inkscape="http://www.inkscape.org/namespaces/inkscape"
   viewBox="0 0 48 48"
   id="svg2"
   version="1.1"
   inkscape:version="0.48.4 r9939"
   width="100%"
   height="100%"
   sodipodi:docname="eye_2015-11-16T0914Z.svg">
  <sodipodi:namedview
     pagecolor="#ffffff"
     bordercolor="#666666"
     borderopacity="1"
     objecttolerance="10"
     gridtolerance="10"
     guidetolerance="10"
     inkscape:pageopacity="0"
     inkscape:pageshadow="2"
     inkscape:window-width="925"
     inkscape:window-height="1027"
     id="namedview16"
     showgrid="false"
     inkscape:zoom="4.9166667"
     inkscape:cx="5.5780244"
     inkscape:cy="24.977291"
     inkscape:window-x="992"
     inkscape:window-y="24"
     inkscape:window-maximized="0"
     inkscape:current-layer="svg2" />
  <metadata
     id="metadata68">
    <rdf:RDF>
      <cc:Work
         rdf:about="">
        <dc:format>image/svg+xml</dc:format>
        <dc:type
           rdf:resource="http://purl.org/dc/dcmitype/StillImage" />
        <dc:title></dc:title>
      </cc:Work>
    </rdf:RDF>
  </metadata>
  <defs
     id="defs4">
    <linearGradient
       id="linearGradient3764"
       x1="1"
       x2="47"
       gradientUnits="userSpaceOnUse"
       gradientTransform="matrix(0,-1,1,0,-1.5e-6,47.999998)">
      <stop
         style="stop-color:#3861aa;stop-opacity:1"
         id="stop7" />
      <stop
         offset="1"
         style="stop-color:#3861aa;stop-opacity:1"
         id="stop9" />
    </linearGradient>
    <clipPath
       id="clipPath-057129763">
      <g
         transform="translate(0,-1004.3622)"
         id="g12">
        <path
           d="m -24 13 c 0 1.105 -0.672 2 -1.5 2 -0.828 0 -1.5 -0.895 -1.5 -2 0 -1.105 0.672 -2 1.5 -2 0.828 0 1.5 0.895 1.5 2 z"
           transform="matrix(15.333333,0,0,11.5,414.99999,878.8622)"
           style="fill:#3861aa"
           id="path14" />
      </g>
    </clipPath>
    <clipPath
       id="clipPath-064426159">
      <g
         transform="translate(0,-1004.3622)"
         id="g17">
        <path
           d="m -24 13 c 0 1.105 -0.672 2 -1.5 2 -0.828 0 -1.5 -0.895 -1.5 -2 0 -1.105 0.672 -2 1.5 -2 0.828 0 1.5 0.895 1.5 2 z"
           transform="matrix(15.333333,0,0,11.5,414.99999,878.8622)"
           style="fill:#3861aa"
           id="path19" />
      </g>
    </clipPath>
  </defs>
  <g
     id="g29">
    <path
       d="m 24 1 c 12.703 0 23 10.297 23 23 c 0 12.703 -10.297 23 -23 23 -12.703 0 -23 -10.297 -23 -23 0 -12.703 10.297 -23 23 -23 z"
       style="fill:url(#linearGradient3764);fill-opacity:1"
       id="path31" />
  </g>
  <path
     inkscape:connector-curvature="0"
     d="m 6.1625973,24.027907 q 0.2114019,-1.761683 2.325421,-3.946169 2.8186927,-2.889159 6.3420577,-4.650842 4.650842,-2.184486 9.372151,-2.184486 4.932712,0.07047 9.372152,2.184486 3.734766,1.902617 6.342057,4.650842 2.325421,2.60729 2.325421,3.946169 -0.211402,1.761683 -2.325421,3.946169 -2.818692,2.889159 -6.342057,4.650842 -4.650843,2.184487 -9.372152,2.184487 -4.932712,-0.07047 -9.372151,-2.184487 -3.734767,-1.902617 -6.3420577,-4.650842 -2.325421,-2.60729 -2.325421,-3.946169 z m 9.5130857,0 q 0,3.38243 2.501607,5.743067 2.501608,2.360636 6.024973,2.360636 3.523365,0 6.024973,-2.360636 2.501607,-2.360637 2.501607,-5.743067 0,-3.38243 -2.501607,-5.743068 -2.501608,-2.360636 -6.024973,-2.360636 -3.523365,0 -6.024973,2.360636 -2.501607,2.360638 -2.501607,5.743068 z m 3.100562,-0.03525 q 0,-2.149271 1.585532,-3.6643 1.585533,-1.515029 3.840486,-1.515029 2.254954,0 3.840486,1.515029 1.585533,1.515029 1.585533,3.6643 0,2.149271 -1.585533,3.699515 -1.585532,1.550245 -3.840486,1.550281 -2.254953,3.6e-5 -3.840486,-1.550281 -1.585532,-1.550316 -1.585532,-3.699515 z"
     style="fill:#ffffff;fill-opacity:1"
     id="path4" />
</svg>
